# xmcd
#
# Track frame offsets:
#	150
#	12637
#	27422
#	36955
#	48987
#	59762
#	80272
#	95552
#	109205
#	122632
#	138000
#	150052
#
# Disc length: 2152 seconds
#
# Revision: 0
# Processed by: cddbd v1.5.1PL2 Copyright (c) Steve Scherf et al.
# Submitted via: EasyCDDAExtractor 8.0.0.2
#
DISCID=9608660c
DTITLE=Nockalm Quintett - Rund um Bad Kleinkirchheim
DYEAR=1984
DGENRE=Volksmusik
TTITLE0=Wir sind 5 Musikanten
TTITLE1=Schnee auf der Kaiserburg
TTITLE2=Klarinettenklänge
TTITLE3=Da drunt' im Tal
TTITLE4=Reichenauer Ploka
TTITLE5=Oh Bergwelt, wie schön bist du
TTITLE6=Musikantenträume
TTITLE7=Dämmerschoppen beim Kirchheimerhof
TTITLE8=Gruss aus ST. Oswald
TTITLE9=Meine Kaiserburg Lady
TTITLE10=Auf der Nockalm
TTITLE11=Martscheiner Marsch
EXTD=
EXTT0=
EXTT1=
EXTT2=
EXTT3=
EXTT4=
EXTT5=
EXTT6=
EXTT7=
EXTT8=
EXTT9=
EXTT10=
EXTT11=
PLAYORDER=
